<svg width="16" height="20" viewBox="0 0 16 20" fill="none" xmlns="http://www.w3.org/2000/svg">
<path d="M8 0L0 3V9.09C0 14.14 3.41 18.85 8 20C12.59 18.85 16 14.14 16 9.09V3L8 0ZM14 9.09C14 13.09 11.45 16.79 8 17.92C4.55 16.79 2 13.1 2 9.09V4.39L8 2.14L14 4.39V9.09Z" fill="#771CA3"/>
<path d="M5.01007 12.33C6.76007 14.5 10.1301 14.57 11.9701 12.4C12.2001 12.13 12.0501 11.72 11.7101 11.66C10.4201 11.45 9.23007 10.68 8.53007 9.46003C7.82007 8.24003 7.75007 6.83003 8.21007 5.60003C8.33007 5.27003 8.05006 4.94003 7.70006 5.00003C4.36006 5.62003 2.81007 9.61003 5.01007 12.33Z" fill="#771CA3"/>
</svg>
