<svg width="181" height="39" viewBox="0 0 181 39" fill="none" xmlns="http://www.w3.org/2000/svg">
<path d="M27.888 28.064L27.168 27.296L25.632 28.448C24.72 27.584 24.24 26 24.192 23.744L23.808 7.472C23.76 6.032 24.144 4.736 24.864 3.536C25.392 2.72 26.256 1.664 27.552 0.464L27.456 0.367998C25.392 0.847998 23.616 2 22.032 3.824C18.96 1.712 15.744 0.655997 12.384 0.655997C9.072 0.655997 6.288 1.76 4.08 4.016C1.872 6.272 0.768 8.768 0.768 11.504L0.864 12.56C1.104 15.2 2.784 17.984 5.952 20.912L1.68 27.248C0.576 28.928 0 30.224 0 31.232C0 32.048 0.336 32.48 1.056 32.48C1.824 32.48 2.208 32.144 2.208 31.472C2.208 31.04 1.728 29.984 1.728 29.6C1.728 28.832 2.352 28.208 3.072 28.208C3.6 28.208 4.272 28.448 5.088 28.88L11.904 32.48L18.912 27.248C19.488 29.696 20.64 31.472 22.416 32.576L27.888 28.064ZM18.768 18.416H9.312L17.424 6.464H17.808L18.768 7.856V18.416ZM16.416 5.552L15.264 7.28C14.448 7.088 13.536 6.992 12.528 6.992C10.944 6.992 9.696 7.376 8.736 8.144C7.68 9.008 7.152 10.208 7.152 11.696C7.872 10.496 8.832 9.776 10.032 9.632L10.8 9.536C11.712 9.536 12.432 9.92 12.912 10.688L6.528 20.048C3.696 17.792 2.304 15.296 2.304 12.512C2.304 10.112 3.216 8.144 4.992 6.608C6.672 5.12 8.736 4.4 11.184 4.4C12.864 4.4 14.592 4.784 16.416 5.552ZM18.96 25.616L14.928 28.88L5.136 24.368L6.912 21.776H18.96V25.616ZM40.7678 28.4L40.1918 27.776L39.0398 28.64L35.5358 26.432V6.224C35.5358 4.448 36.3038 3.008 37.8878 1.856C36.1118 2.096 34.4318 2.912 32.9438 4.304L32.4158 4.352C31.5038 3.632 30.4478 3.104 29.2477 2.816C30.3038 3.92 30.8318 4.928 30.8318 5.888V25.04C30.8318 26.432 30.3998 27.584 29.5838 28.496C32.6078 29.6 34.8638 30.8 36.3997 32.144L40.7678 28.4ZM58.6526 37.328C57.4526 35.744 56.8286 34.304 56.8286 33.008V15.296L58.0286 13.76C55.1486 13.184 52.1726 11.792 49.1006 9.584C47.2286 11.216 44.9726 12.368 42.3806 13.04V26.528C42.3806 28.88 43.3886 30.752 45.4046 32.096L52.2206 27.2L52.3646 32.912C52.4126 34.64 51.6926 36.464 50.3006 38.336C51.5966 38.144 52.6526 37.664 53.4686 36.944L55.0526 35.312C55.8206 35.936 56.3966 36.368 56.7326 36.608C57.3566 36.992 57.9806 37.232 58.6526 37.328ZM52.3166 25.904L48.4766 28.688C47.3246 28.064 46.7486 27.296 46.7486 26.384V13.472L52.3166 15.872V25.904ZM79.7749 28.736L79.2949 28.256L78.4309 28.832C77.4709 28.304 76.9909 27.824 76.9909 27.296V13.616L78.3829 12.416L74.8309 9.584L71.4229 12.416L72.5749 13.856V25.904L68.6869 28.688C67.5349 28.064 66.9589 27.296 66.9589 26.384V13.616L68.3989 12.464L64.7509 9.632L60.1429 13.184L60.6229 13.712L61.7269 13.04L62.5909 13.856V26.528C62.5909 28.928 63.5989 30.8 65.6149 32.096L72.4789 27.2C72.4789 29.216 73.4869 30.896 75.5029 32.288L79.7749 28.736ZM88.8161 2.528H85.2641L84.1121 7.424H84.7361L88.8161 2.528ZM90.0641 28.688L89.5841 28.256L88.7201 28.832C87.9521 28.448 87.5201 27.92 87.3761 27.296V14L88.5761 12.656L84.8801 9.584L81.3281 12.512L82.7201 14V26.528L82.6721 27.392C82.5281 29.456 83.5361 31.088 85.6961 32.24L90.0641 28.688ZM108.298 12.8C108.298 12.08 108.442 11.408 108.682 10.736C107.866 11.072 107.194 11.6 106.762 12.32L92.1698 3.008V7.568L98.2658 11.504C96.4898 12.416 95.0498 13.04 93.8978 13.328V24.8C93.8978 26.48 93.4658 27.68 92.5538 28.496C95.7218 29.168 98.6018 30.416 101.194 32.288C103.162 30.704 105.514 29.504 108.298 28.592V12.8ZM103.738 28.496L98.3618 26.576V13.472L99.9458 12.512L103.738 15.056V28.496ZM124.833 15.776L118.641 9.584C116.529 11.072 114.369 12.368 112.161 13.376V26.192C112.161 27.584 111.729 28.736 110.817 29.696C113.121 30.128 115.329 30.944 117.441 32.096L121.617 29.168C122.577 28.496 123.441 27.92 124.257 27.392L123.729 26.816L120.561 28.832L116.529 27.056V22.064C118.593 20.288 121.329 18.224 124.833 15.776ZM121.041 17.36L116.481 20.96V12.704L121.041 17.36ZM141.401 13.04L138.281 9.632L133.433 13.328C133.289 12.32 132.953 11.552 132.473 11.024C132.089 10.592 131.417 10.112 130.409 9.584L126.329 13.184L126.857 13.712L127.673 13.184C128.441 13.808 128.825 14.576 128.825 15.392V25.04C128.825 26.624 128.393 27.776 127.529 28.496C129.785 29.36 131.849 30.56 133.673 32.144L138.041 28.4L137.465 27.824L136.073 28.832L133.481 26.816V14.384L135.353 12.944L138.233 15.776L141.401 13.04ZM161.758 28.736L161.278 28.256L160.27 28.832C159.646 28.4 159.166 27.872 158.926 27.296V14.672C159.598 13.568 160.318 12.56 161.038 11.648L160.558 11.12L158.494 12.752L155.182 9.68C153.79 10.976 151.726 12.656 149.038 14.624C149.038 12.464 148.03 10.784 146.014 9.584L142.078 13.184L142.558 13.712L143.326 13.184C144.094 13.808 144.478 14.576 144.478 15.392V27.728L143.134 29.216L146.782 32.288L150.238 29.216L148.942 27.584V15.68L152.35 13.184L154.51 15.056V26.528C154.51 29.408 155.134 30.8 157.438 32.288L161.758 28.736ZM180.879 28.688L180.351 28.256L179.487 28.688C178.863 28.496 178.383 28.016 178.143 27.2V14.624C178.479 13.328 179.007 12.128 179.775 10.928L179.679 10.736L178.335 11.792L171.519 9.536C170.031 10.928 168.351 11.552 166.575 11.408L165.951 11.36L168.255 17.36C165.087 20.192 163.503 23.072 163.503 26.048C163.503 28.016 164.655 30.08 166.911 32.192H167.151L173.679 26.96C173.679 29.312 174.687 31.04 176.751 32.144L180.879 28.688ZM173.679 19.664L168.735 17.264L166.719 11.792L173.679 14.384V19.664ZM173.727 25.712L170.127 28.784C168.255 26.912 167.343 24.896 167.343 22.736C167.343 21.248 167.823 19.664 168.735 18.032L173.727 20.528V25.712Z" fill="white"/>
</svg>
